<svg xmlns="http://www.w3.org/2000/svg" width="22.688" height="21.313" viewBox="0 0 22.688 21.313">
  <defs>
    <style>
      .cls-1 {
        fill: #103f56;
        fill-rule: evenodd;
      }
    </style>
  </defs>
  <path id="Shape_25_copy_3" data-name="Shape 25 copy 3" class="cls-1" d="M34.344,30.678c-6.261,0-11.338,4.8-11.338,10.727A10.932,10.932,0,0,0,32.572,52v-7.5H29.694v-3.1h2.879V39.043c0-2.689,1.693-4.174,4.282-4.174a18.4,18.4,0,0,1,2.538.209v2.64h-1.43a1.6,1.6,0,0,0-1.848,1.675v2.012H39.26l-0.5,3.1H36.115V52a10.932,10.932,0,0,0,9.566-10.6C45.681,35.481,40.605,30.678,34.344,30.678Z" transform="translate(-23 -30.688)"/>
</svg>
