<svg xmlns="http://www.w3.org/2000/svg" width="22.687" height="21.469" viewBox="0 0 22.687 21.469">
  <defs>
    <style>
      .cls-1 {
        fill: #103f56;
        fill-rule: evenodd;
      }
    </style>
  </defs>
  <path id="Shape_26_copy_3" data-name="Shape 26 copy 3" class="cls-1" d="M78.319,31.934c3.027,0,3.386.011,4.581,0.062a6.584,6.584,0,0,1,2.105.37,3.528,3.528,0,0,1,1.3.8,3.3,3.3,0,0,1,.848,1.233,5.658,5.658,0,0,1,.391,1.992c0.054,1.131.066,1.471,0.066,4.335s-0.012,3.2-.066,4.334a5.66,5.66,0,0,1-.391,1.992,3.3,3.3,0,0,1-.848,1.233,3.537,3.537,0,0,1-1.3.8,6.606,6.606,0,0,1-2.105.369c-1.2.051-1.554,0.062-4.581,0.062s-3.386-.011-4.581-0.062a6.6,6.6,0,0,1-2.105-.369,3.548,3.548,0,0,1-1.3-.8,3.314,3.314,0,0,1-.848-1.234,5.662,5.662,0,0,1-.39-1.992c-0.055-1.131-.066-1.47-0.066-4.334s0.011-3.2.066-4.335a5.66,5.66,0,0,1,.39-1.992,3.313,3.313,0,0,1,.848-1.233,3.531,3.531,0,0,1,1.3-.8A6.582,6.582,0,0,1,73.738,32c1.2-.051,1.554-0.062,4.582-0.062m0-1.933c-3.079,0-3.466.012-4.674,0.064a8.768,8.768,0,0,0-2.752.5A5.59,5.59,0,0,0,68.884,31.8a5.24,5.24,0,0,0-1.308,1.9,7.515,7.515,0,0,0-.527,2.6c-0.055,1.144-.068,1.509-0.068,4.423s0.013,3.279.068,4.423a7.51,7.51,0,0,0,.527,2.6,5.243,5.243,0,0,0,1.308,1.9,5.6,5.6,0,0,0,2.008,1.237,8.722,8.722,0,0,0,2.752.5c1.209,0.052,1.6.065,4.674,0.065s3.465-.013,4.675-0.065a8.721,8.721,0,0,0,2.752-.5,5.6,5.6,0,0,0,2.008-1.237,5.24,5.24,0,0,0,1.308-1.9,7.508,7.508,0,0,0,.527-2.6c0.055-1.145.068-1.509,0.068-4.423s-0.013-3.279-.068-4.423a7.513,7.513,0,0,0-.527-2.6,5.237,5.237,0,0,0-1.308-1.9,5.589,5.589,0,0,0-2.008-1.238,8.767,8.767,0,0,0-2.752-.5C81.784,30.014,81.4,30,78.319,30h0Zm0,5.219a5.517,5.517,0,1,0,5.822,5.508A5.672,5.672,0,0,0,78.319,35.221Zm0,9.084A3.581,3.581,0,1,1,82.1,40.729,3.682,3.682,0,0,1,78.319,44.305ZM85.732,35a1.363,1.363,0,1,1-1.361-1.287A1.325,1.325,0,0,1,85.732,35Z" transform="translate(-66.969 -30)"/>
</svg>
