<svg xmlns="http://www.w3.org/2000/svg" width="21.688" height="22" viewBox="0 0 21.688 22">
  <defs>
    <style>
      .cls-1 {
        fill-rule: evenodd;
        fill: #2b2b2b;
      }
    </style>
  </defs>
  <path class="cls-1" d="M219.656,30H202.344a2.192,2.192,0,0,0-2.186,2.2V49.8a2.192,2.192,0,0,0,2.186,2.2h17.312a2.192,2.192,0,0,0,2.186-2.2V32.2A2.192,2.192,0,0,0,219.656,30Zm-12.54,17.4H204.2V38h2.918v9.408Zm-1.478-10.563a1.465,1.465,0,1,1,1.573-1.462A1.455,1.455,0,0,1,205.638,36.843Zm12.129,10.563H214.85V42.192c0-1.212-.422-2.039-1.478-2.039a1.6,1.6,0,0,0-1.5,1.1,2.106,2.106,0,0,0-.1.731v5.425h-2.917V41c0-1.174-.039-2.154-0.077-3h2.534l0.134,1.308h0.058a3.367,3.367,0,0,1,2.9-1.52c1.919,0,3.358,1.289,3.358,4.06v5.56Z" transform="translate(-200.156 -30)"/>
</svg>
