<svg xmlns="http://www.w3.org/2000/svg" width="26" height="21" viewBox="0 0 26 21">
  <defs>
    <style>
      .cls-1 {
        fill-rule: evenodd;
        fill: #2b2b2b;
      }
    </style>
  </defs>
  <path class="cls-1" d="M162.178,51a15.024,15.024,0,0,0,15.173-15.086c0-.229,0-0.458-0.016-0.685A10.814,10.814,0,0,0,180,32.483a10.691,10.691,0,0,1-3.063.834,5.332,5.332,0,0,0,2.345-2.933,10.727,10.727,0,0,1-3.387,1.287,5.36,5.36,0,0,0-7.545-.23,5.288,5.288,0,0,0-1.543,5.066,15.17,15.17,0,0,1-10.99-5.54,5.287,5.287,0,0,0,1.651,7.078,5.309,5.309,0,0,1-2.42-.664v0.067a5.311,5.311,0,0,0,4.278,5.2,5.352,5.352,0,0,1-2.408.091A5.335,5.335,0,0,0,161.9,46.42a10.739,10.739,0,0,1-6.623,2.274A10.961,10.961,0,0,1,154,48.618,15.162,15.162,0,0,0,162.178,51" transform="translate(-154 -30)"/>
</svg>
