<svg xmlns="http://www.w3.org/2000/svg" width="27.188" height="18.563" viewBox="0 0 27.188 18.563">
  <defs>
    <style>
      .cls-1 {
        fill: #103f56;
        fill-rule: evenodd;
      }
    </style>
  </defs>
  <path id="Shape_27_copy_3" data-name="Shape 27 copy 3" class="cls-1" d="M135.428,34.964a3.366,3.366,0,0,0-2.4-2.346c-2.121-.555-10.623-0.555-10.623-0.555s-8.5,0-10.623.555a3.366,3.366,0,0,0-2.4,2.346,33.728,33.728,0,0,0-.568,6.387,33.723,33.723,0,0,0,.568,6.387,3.365,3.365,0,0,0,2.4,2.346c2.12,0.554,10.623.554,10.623,0.554s8.5,0,10.623-.554a3.365,3.365,0,0,0,2.4-2.346A33.723,33.723,0,0,0,136,41.351,33.728,33.728,0,0,0,135.428,34.964ZM119.62,45.271v-7.84l7.107,3.92Z" transform="translate(-108.812 -32.063)"/>
</svg>
